# xmcd CD database file
#
# Track frame offsets:
#	150
#	23240
#	35528
#	58608
#	73593
#	95186
#	112888
#	126390
#	149140
#	171475
#	185431
#	199506
#	215067
#	245291
#	271674
#
# Disc length: 3831 seconds
#
# Revision: 0
# Processed by: cddbd v1.5.2PL0 Copyright (c) Steve Scherf et al.
# Submitted via: CDex 1.51
#
DISCID=e80ef50f
DTITLE=Kilian and Böcker - Swing Power Pur
DYEAR=2011
DGENRE=Jazz
TTITLE0=Bei mir bist du schön
TTITLE1=Lady Be Good
TTITLE2=The Man I Love
TTITLE3=Deedle's Blues
TTITLE4=New Orleans
TTITLE5=How High The Moon
TTITLE6=Exactly Like You
TTITLE7=S.Louis Blues
TTITLE8=Secret Love
TTITLE9=Dark Eyes
TTITLE10=Je ne veux pas travailler
TTITLE11=Swingin' The Blues
TTITLE12=My Funny Valentine
TTITLE13=Tin Roof Blues
TTITLE14=Creole Jazz
EXTD=YEAR: 2011
EXTT0=
EXTT1=
EXTT2=
EXTT3=
EXTT4=
EXTT5=
EXTT6=
EXTT7=
EXTT8=
EXTT9=
EXTT10=
EXTT11=
EXTT12=
EXTT13=
EXTT14=
PLAYORDER=
